<?xml version="1.0" encoding="UTF-8"?>
<svg xmlns="http://www.w3.org/2000/svg" width="1200" height="520" viewBox="0 0 1200 520">
<rect width="100%" height="100%" fill="white"/>
<text x="600.0" y="30" text-anchor="middle" font-size="20" font-family="sans-serif">Ablation estimated tokens (not model tokens)</text>
<g font-family="sans-serif" fill="#111827">
<path d="M 85 55 V 365 H 1175" fill="none" stroke="#374151" stroke-width="1"/><text x="18" y="210.0" transform="rotate(-90 18 210.0)" text-anchor="middle" font-size="12">estimated tokens</text>
<rect x="106.80" y="70.23" width="77.51" height="294.77" fill="#3b82f6"/>
<text x="145.56" y="65.23" text-anchor="middle" font-size="11">328612.67</text>
<text transform="translate(145.56,379.00) rotate(45)" font-size="11">text_full_context</text>
<rect x="227.91" y="364.34" width="77.51" height="0.66" fill="#3b82f6"/>
<text x="266.67" y="359.34" text-anchor="middle" font-size="11">736.17</text>
<text transform="translate(266.67,379.00) rotate(45)" font-size="11">text_summary</text>
<rect x="349.02" y="70.00" width="77.51" height="295.00" fill="#3b82f6"/>
<text x="387.78" y="65.00" text-anchor="middle" font-size="11">328872.07</text>
<text transform="translate(387.78,379.00) rotate(45)" font-size="11">json_full_state</text>
<rect x="470.13" y="305.52" width="77.51" height="59.48" fill="#3b82f6"/>
<text x="508.89" y="300.52" text-anchor="middle" font-size="11">66308.18</text>
<text transform="translate(508.89,379.00) rotate(45)" font-size="11">structured_no_shm</text>
<rect x="591.24" y="363.57" width="77.51" height="1.43" fill="#3b82f6"/>
<text x="630.00" y="358.57" text-anchor="middle" font-size="11">1589.71</text>
<text transform="translate(630.00,379.00) rotate(45)" font-size="11">structured_no_patch</text>
<rect x="712.36" y="364.25" width="77.51" height="0.75" fill="#3b82f6"/>
<text x="751.11" y="359.25" text-anchor="middle" font-size="11">834.68</text>
<text transform="translate(751.11,379.00) rotate(45)" font-size="11">structured_no_memory</text>
<rect x="833.47" y="364.32" width="77.51" height="0.68" fill="#3b82f6"/>
<text x="872.22" y="359.32" text-anchor="middle" font-size="11">754.74</text>
<text transform="translate(872.22,379.00) rotate(45)" font-size="11">structured_no_embedding</text>
<rect x="954.58" y="364.41" width="77.51" height="0.59" fill="#3b82f6"/>
<text x="993.33" y="359.41" text-anchor="middle" font-size="11">657.10</text>
<text transform="translate(993.33,379.00) rotate(45)" font-size="11">structured_no_capability</text>
<rect x="1075.69" y="364.25" width="77.51" height="0.75" fill="#3b82f6"/>
<text x="1114.44" y="359.25" text-anchor="middle" font-size="11">834.52</text>
<text transform="translate(1114.44,379.00) rotate(45)" font-size="11">structured_full</text>
</g></svg>
