<?xml version="1.0" encoding="UTF-8"?>
<svg xmlns="http://www.w3.org/2000/svg" width="1200" height="520" viewBox="0 0 1200 520">
<rect width="100%" height="100%" fill="white"/>
<text x="600.0" y="30" text-anchor="middle" font-size="20" font-family="sans-serif">Ablation mean latency</text>
<g font-family="sans-serif" fill="#111827">
<path d="M 85 55 V 365 H 1175" fill="none" stroke="#374151" stroke-width="1"/><text x="18" y="210.0" transform="rotate(-90 18 210.0)" text-anchor="middle" font-size="12">milliseconds</text>
<rect x="106.80" y="155.89" width="77.51" height="209.11" fill="#3b82f6"/>
<text x="145.56" y="150.89" text-anchor="middle" font-size="11">4.89</text>
<text transform="translate(145.56,379.00) rotate(45)" font-size="11">text_full_context</text>
<rect x="227.91" y="353.57" width="77.51" height="11.43" fill="#3b82f6"/>
<text x="266.67" y="348.57" text-anchor="middle" font-size="11">0.27</text>
<text transform="translate(266.67,379.00) rotate(45)" font-size="11">text_summary</text>
<rect x="349.02" y="70.00" width="77.51" height="295.00" fill="#3b82f6"/>
<text x="387.78" y="65.00" text-anchor="middle" font-size="11">6.90</text>
<text transform="translate(387.78,379.00) rotate(45)" font-size="11">json_full_state</text>
<rect x="470.13" y="290.65" width="77.51" height="74.35" fill="#3b82f6"/>
<text x="508.89" y="285.65" text-anchor="middle" font-size="11">1.74</text>
<text transform="translate(508.89,379.00) rotate(45)" font-size="11">structured_no_shm</text>
<rect x="591.24" y="320.84" width="77.51" height="44.16" fill="#3b82f6"/>
<text x="630.00" y="315.84" text-anchor="middle" font-size="11">1.03</text>
<text transform="translate(630.00,379.00) rotate(45)" font-size="11">structured_no_patch</text>
<rect x="712.36" y="322.18" width="77.51" height="42.82" fill="#3b82f6"/>
<text x="751.11" y="317.18" text-anchor="middle" font-size="11">1.00</text>
<text transform="translate(751.11,379.00) rotate(45)" font-size="11">structured_no_memory</text>
<rect x="833.47" y="325.22" width="77.51" height="39.78" fill="#3b82f6"/>
<text x="872.22" y="320.22" text-anchor="middle" font-size="11">0.93</text>
<text transform="translate(872.22,379.00) rotate(45)" font-size="11">structured_no_embedding</text>
<rect x="954.58" y="323.73" width="77.51" height="41.27" fill="#3b82f6"/>
<text x="993.33" y="318.73" text-anchor="middle" font-size="11">0.96</text>
<text transform="translate(993.33,379.00) rotate(45)" font-size="11">structured_no_capability</text>
<rect x="1075.69" y="322.30" width="77.51" height="42.70" fill="#3b82f6"/>
<text x="1114.44" y="317.30" text-anchor="middle" font-size="11">1.00</text>
<text transform="translate(1114.44,379.00) rotate(45)" font-size="11">structured_full</text>
</g></svg>
