<svg xmlns="http://www.w3.org/2000/svg" width="860" height="520" viewBox="0 0 860 520">
<rect width="100%" height="100%" fill="#fffdf8"/>
<text x="430.0" y="34" text-anchor="middle" font-size="22" font-family="monospace" fill="#1f2933">Collaboration Total Tokens</text>
<text x="26" y="250.0" transform="rotate(-90 26 250.0)" text-anchor="middle" font-size="14" font-family="monospace" fill="#334e68">tokens</text>
<line x1="90" y1="430" x2="820" y2="430" stroke="#7b8794" stroke-width="1"/>
<line x1="90" y1="70" x2="90" y2="430" stroke="#7b8794" stroke-width="1"/>
<line x1="90" y1="430.0" x2="820" y2="430.0" stroke="#e4e7eb" stroke-width="1"/>
<text x="80" y="435.0" text-anchor="end" font-size="12" font-family="monospace" fill="#52606d">0.00</text>
<line x1="90" y1="358.0" x2="820" y2="358.0" stroke="#e4e7eb" stroke-width="1"/>
<text x="80" y="363.0" text-anchor="end" font-size="12" font-family="monospace" fill="#52606d">140000</text>
<line x1="90" y1="286.0" x2="820" y2="286.0" stroke="#e4e7eb" stroke-width="1"/>
<text x="80" y="291.0" text-anchor="end" font-size="12" font-family="monospace" fill="#52606d">280000</text>
<line x1="90" y1="214.0" x2="820" y2="214.0" stroke="#e4e7eb" stroke-width="1"/>
<text x="80" y="219.0" text-anchor="end" font-size="12" font-family="monospace" fill="#52606d">420000</text>
<line x1="90" y1="142.0" x2="820" y2="142.0" stroke="#e4e7eb" stroke-width="1"/>
<text x="80" y="147.0" text-anchor="end" font-size="12" font-family="monospace" fill="#52606d">560000</text>
<line x1="90" y1="70.0" x2="820" y2="70.0" stroke="#e4e7eb" stroke-width="1"/>
<text x="80" y="75.0" text-anchor="end" font-size="12" font-family="monospace" fill="#52606d">700000</text>
<rect x="227.5" y="92.8" width="90.0" height="337.2" fill="#0b7285" rx="4"/>
<text x="272.5" y="84.8" text-anchor="middle" font-size="12" font-family="monospace" fill="#102a43">655654</text>
<text x="272.5" y="452.0" text-anchor="middle" font-size="12" font-family="monospace" fill="#334e68">text_mode</text>
<rect x="592.5" y="424.8" width="90.0" height="5.2" fill="#f08c00" rx="4"/>
<text x="637.5" y="416.8" text-anchor="middle" font-size="12" font-family="monospace" fill="#102a43">10021</text>
<text x="637.5" y="452.0" text-anchor="middle" font-size="12" font-family="monospace" fill="#334e68">structured_mode</text>
</svg>