<?xml version="1.0" encoding="UTF-8"?>
<svg xmlns="http://www.w3.org/2000/svg" width="1000" height="520" viewBox="0 0 1000 520">
<rect width="100%" height="100%" fill="white"/>
<text x="500.0" y="30" text-anchor="middle" font-size="20" font-family="sans-serif">Transport latency percentiles</text>
<g font-family="sans-serif" fill="#111827">
<path d="M 85 55 V 440 H 780" fill="none" stroke="#374151" stroke-width="1"/><text x="18" y="247.5" transform="rotate(-90 18 247.5)" text-anchor="middle" font-size="12">milliseconds</text>
<rect x="119.75" y="438.71" width="38.54" height="1.29" fill="#2563eb"/>
<rect x="160.29" y="439.27" width="38.54" height="0.73" fill="#16a34a"/>
<rect x="200.83" y="439.34" width="38.54" height="0.66" fill="#ea580c"/>
<rect x="241.38" y="439.30" width="38.54" height="0.70" fill="#9333ea"/>
<text x="200.83" y="464" text-anchor="middle">p50</text>
<rect x="351.42" y="243.10" width="38.54" height="196.90" fill="#2563eb"/>
<rect x="391.96" y="398.78" width="38.54" height="41.22" fill="#16a34a"/>
<rect x="432.50" y="398.83" width="38.54" height="41.17" fill="#ea580c"/>
<rect x="473.04" y="398.91" width="38.54" height="41.09" fill="#9333ea"/>
<text x="432.50" y="464" text-anchor="middle">p95</text>
<rect x="583.08" y="70.00" width="38.54" height="370.00" fill="#2563eb"/>
<rect x="623.62" y="365.64" width="38.54" height="74.36" fill="#16a34a"/>
<rect x="664.17" y="365.18" width="38.54" height="74.82" fill="#ea580c"/>
<rect x="704.71" y="365.42" width="38.54" height="74.58" fill="#9333ea"/>
<text x="664.17" y="464" text-anchor="middle">p99</text>
<rect x="805" y="62" width="14" height="14" fill="#2563eb"/>
<text x="826" y="73" font-size="12">direct_uds</text>
<rect x="805" y="86" width="14" height="14" fill="#16a34a"/>
<text x="826" y="97" font-size="12">shm_ref</text>
<rect x="805" y="110" width="14" height="14" fill="#ea580c"/>
<text x="826" y="121" font-size="12">fixed_adaptive</text>
<rect x="805" y="134" width="14" height="14" fill="#9333ea"/>
<text x="826" y="145" font-size="12">calibrated_adaptive</text>
</g></svg>
