<svg xmlns="http://www.w3.org/2000/svg" width="860" height="520" viewBox="0 0 860 520">
<rect width="100%" height="100%" fill="#fffdf8"/>
<text x="430.0" y="34" text-anchor="middle" font-size="22" font-family="monospace" fill="#1f2933">StatePatch vs Full State Bytes</text>
<line x1="90" y1="430" x2="820" y2="430" stroke="#7b8794" stroke-width="1"/>
<line x1="90" y1="70" x2="90" y2="430" stroke="#7b8794" stroke-width="1"/>
<line x1="90" y1="430.0" x2="820" y2="430.0" stroke="#e4e7eb" stroke-width="1"/>
<text x="80" y="435.0" text-anchor="end" font-size="12" font-family="monospace" fill="#52606d">0.00</text>
<line x1="90" y1="358.0" x2="820" y2="358.0" stroke="#e4e7eb" stroke-width="1"/>
<text x="80" y="363.0" text-anchor="end" font-size="12" font-family="monospace" fill="#52606d">16000</text>
<line x1="90" y1="286.0" x2="820" y2="286.0" stroke="#e4e7eb" stroke-width="1"/>
<text x="80" y="291.0" text-anchor="end" font-size="12" font-family="monospace" fill="#52606d">32000</text>
<line x1="90" y1="214.0" x2="820" y2="214.0" stroke="#e4e7eb" stroke-width="1"/>
<text x="80" y="219.0" text-anchor="end" font-size="12" font-family="monospace" fill="#52606d">48000</text>
<line x1="90" y1="142.0" x2="820" y2="142.0" stroke="#e4e7eb" stroke-width="1"/>
<text x="80" y="147.0" text-anchor="end" font-size="12" font-family="monospace" fill="#52606d">64000</text>
<line x1="90" y1="70.0" x2="820" y2="70.0" stroke="#e4e7eb" stroke-width="1"/>
<text x="80" y="75.0" text-anchor="end" font-size="12" font-family="monospace" fill="#52606d">80000</text>
<rect x="137.1" y="424.9" width="42.0" height="5.1" fill="#1c7ed6" rx="4"/>
<text x="158.1" y="416.9" text-anchor="middle" font-size="11" font-family="monospace" fill="#102a43">1136</text>
<rect x="219.9" y="429.0" width="42.0" height="1.0" fill="#e8590c" rx="4"/>
<text x="240.9" y="421.0" text-anchor="middle" font-size="11" font-family="monospace" fill="#102a43">214</text>
<text x="211.7" y="452.0" text-anchor="middle" font-size="12" font-family="monospace" fill="#334e68">small</text>
<rect x="380.5" y="396.5" width="42.0" height="33.5" fill="#1c7ed6" rx="4"/>
<text x="401.5" y="388.5" text-anchor="middle" font-size="11" font-family="monospace" fill="#102a43">7437</text>
<rect x="463.2" y="429.0" width="42.0" height="1.0" fill="#e8590c" rx="4"/>
<text x="484.2" y="421.0" text-anchor="middle" font-size="11" font-family="monospace" fill="#102a43">215</text>
<text x="455.0" y="452.0" text-anchor="middle" font-size="12" font-family="monospace" fill="#334e68">medium</text>
<rect x="623.8" y="113.0" width="42.0" height="317.0" fill="#1c7ed6" rx="4"/>
<text x="644.8" y="105.0" text-anchor="middle" font-size="11" font-family="monospace" fill="#102a43">70436</text>
<rect x="706.5" y="429.0" width="42.0" height="1.0" fill="#e8590c" rx="4"/>
<text x="727.5" y="421.0" text-anchor="middle" font-size="11" font-family="monospace" fill="#102a43">214</text>
<text x="698.3" y="452.0" text-anchor="middle" font-size="12" font-family="monospace" fill="#334e68">large</text>
<rect x="90" y="480" width="14" height="14" fill="#1c7ed6"/>
<text x="110" y="492" font-size="12" font-family="monospace" fill="#334e68">full_state_bytes</text>
<rect x="310" y="480" width="14" height="14" fill="#e8590c"/>
<text x="330" y="492" font-size="12" font-family="monospace" fill="#334e68">patch_bytes</text>
</svg>