<svg xmlns="http://www.w3.org/2000/svg" width="860" height="520" viewBox="0 0 860 520">
<rect width="100%" height="100%" fill="#fffdf8"/>
<text x="430.0" y="34" text-anchor="middle" font-size="22" font-family="monospace" fill="#1f2933">Transport Average Latency (ms)</text>
<text x="26" y="250.0" transform="rotate(-90 26 250.0)" text-anchor="middle" font-size="14" font-family="monospace" fill="#334e68">latency_ms</text>
<line x1="90" y1="430" x2="820" y2="430" stroke="#7b8794" stroke-width="1"/>
<line x1="90" y1="70" x2="90" y2="430" stroke="#7b8794" stroke-width="1"/>
<line x1="90" y1="430.0" x2="820" y2="430.0" stroke="#e4e7eb" stroke-width="1"/>
<text x="80" y="435.0" text-anchor="end" font-size="12" font-family="monospace" fill="#52606d">0.00</text>
<line x1="90" y1="358.0" x2="820" y2="358.0" stroke="#e4e7eb" stroke-width="1"/>
<text x="80" y="363.0" text-anchor="end" font-size="12" font-family="monospace" fill="#52606d">8.00</text>
<line x1="90" y1="286.0" x2="820" y2="286.0" stroke="#e4e7eb" stroke-width="1"/>
<text x="80" y="291.0" text-anchor="end" font-size="12" font-family="monospace" fill="#52606d">16.0</text>
<line x1="90" y1="214.0" x2="820" y2="214.0" stroke="#e4e7eb" stroke-width="1"/>
<text x="80" y="219.0" text-anchor="end" font-size="12" font-family="monospace" fill="#52606d">24.0</text>
<line x1="90" y1="142.0" x2="820" y2="142.0" stroke="#e4e7eb" stroke-width="1"/>
<text x="80" y="147.0" text-anchor="end" font-size="12" font-family="monospace" fill="#52606d">32.0</text>
<line x1="90" y1="70.0" x2="820" y2="70.0" stroke="#e4e7eb" stroke-width="1"/>
<text x="80" y="75.0" text-anchor="end" font-size="12" font-family="monospace" fill="#52606d">40.0</text>
<rect x="166.7" y="98.6" width="90.0" height="331.4" fill="#0b7285" rx="4"/>
<text x="211.7" y="90.6" text-anchor="middle" font-size="12" font-family="monospace" fill="#102a43">36.8</text>
<text x="211.7" y="452.0" text-anchor="middle" font-size="12" font-family="monospace" fill="#334e68">direct_uds</text>
<rect x="410.0" y="376.4" width="90.0" height="53.6" fill="#f08c00" rx="4"/>
<text x="455.0" y="368.4" text-anchor="middle" font-size="12" font-family="monospace" fill="#102a43">5.96</text>
<text x="455.0" y="452.0" text-anchor="middle" font-size="12" font-family="monospace" fill="#334e68">shm_ref</text>
<rect x="653.3" y="379.4" width="90.0" height="50.6" fill="#5c940d" rx="4"/>
<text x="698.3" y="371.4" text-anchor="middle" font-size="12" font-family="monospace" fill="#102a43">5.62</text>
<text x="698.3" y="452.0" text-anchor="middle" font-size="12" font-family="monospace" fill="#334e68">adaptive</text>
</svg>