<?xml version="1.0" encoding="UTF-8"?>
<svg xmlns="http://www.w3.org/2000/svg" width="1100" height="560" viewBox="0 0 1100 560">
<rect width="100%" height="100%" fill="white"/>
<text x="550.0" y="30" text-anchor="middle" font-size="20" font-family="sans-serif">Measured transport crossover</text>
<g font-family="sans-serif" fill="#111827">
<path d="M 90 55 V 475 H 840" fill="none" stroke="#374151" stroke-width="1"/><text x="18" y="265.0" transform="rotate(-90 18 265.0)" text-anchor="middle" font-size="12">milliseconds</text>
<circle cx="90.00" cy="474.92" r="3" fill="#2563eb"/>
<circle cx="215.00" cy="474.91" r="3" fill="#2563eb"/>
<circle cx="340.00" cy="474.84" r="3" fill="#2563eb"/>
<circle cx="465.00" cy="474.53" r="3" fill="#2563eb"/>
<circle cx="590.00" cy="473.36" r="3" fill="#2563eb"/>
<circle cx="715.00" cy="468.27" r="3" fill="#2563eb"/>
<circle cx="840.00" cy="399.33" r="3" fill="#2563eb"/>
<polyline points="90.00,474.92 215.00,474.91 340.00,474.84 465.00,474.53 590.00,473.36 715.00,468.27 840.00,399.33" fill="none" stroke="#2563eb" stroke-width="2"/>
<line x1="860" y1="69" x2="883" y2="69" stroke="#2563eb" stroke-width="3"/>
<text x="890" y="73" font-size="11">direct_uds r=1</text>
<circle cx="90.00" cy="474.89" r="3" fill="#16a34a"/>
<circle cx="215.00" cy="474.88" r="3" fill="#16a34a"/>
<circle cx="340.00" cy="474.84" r="3" fill="#16a34a"/>
<circle cx="465.00" cy="474.74" r="3" fill="#16a34a"/>
<circle cx="590.00" cy="474.32" r="3" fill="#16a34a"/>
<circle cx="715.00" cy="472.69" r="3" fill="#16a34a"/>
<circle cx="840.00" cy="456.71" r="3" fill="#16a34a"/>
<polyline points="90.00,474.89 215.00,474.88 340.00,474.84 465.00,474.74 590.00,474.32 715.00,472.69 840.00,456.71" fill="none" stroke="#16a34a" stroke-width="2"/>
<line x1="860" y1="92" x2="883" y2="92" stroke="#16a34a" stroke-width="3"/>
<text x="890" y="96" font-size="11">shm_ref r=1</text>
<circle cx="90.00" cy="474.80" r="3" fill="#ea580c"/>
<circle cx="215.00" cy="474.71" r="3" fill="#ea580c"/>
<circle cx="340.00" cy="474.65" r="3" fill="#ea580c"/>
<circle cx="465.00" cy="474.08" r="3" fill="#ea580c"/>
<circle cx="590.00" cy="471.85" r="3" fill="#ea580c"/>
<circle cx="715.00" cy="462.60" r="3" fill="#ea580c"/>
<circle cx="840.00" cy="350.41" r="3" fill="#ea580c"/>
<polyline points="90.00,474.80 215.00,474.71 340.00,474.65 465.00,474.08 590.00,471.85 715.00,462.60 840.00,350.41" fill="none" stroke="#ea580c" stroke-width="2"/>
<line x1="860" y1="115" x2="883" y2="115" stroke="#ea580c" stroke-width="3"/>
<text x="890" y="119" font-size="11">direct_uds r=2</text>
<circle cx="90.00" cy="474.80" r="3" fill="#9333ea"/>
<circle cx="215.00" cy="474.80" r="3" fill="#9333ea"/>
<circle cx="340.00" cy="474.76" r="3" fill="#9333ea"/>
<circle cx="465.00" cy="474.62" r="3" fill="#9333ea"/>
<circle cx="590.00" cy="474.01" r="3" fill="#9333ea"/>
<circle cx="715.00" cy="471.76" r="3" fill="#9333ea"/>
<circle cx="840.00" cy="449.22" r="3" fill="#9333ea"/>
<polyline points="90.00,474.80 215.00,474.80 340.00,474.76 465.00,474.62 590.00,474.01 715.00,471.76 840.00,449.22" fill="none" stroke="#9333ea" stroke-width="2"/>
<line x1="860" y1="138" x2="883" y2="138" stroke="#9333ea" stroke-width="3"/>
<text x="890" y="142" font-size="11">shm_ref r=2</text>
<circle cx="90.00" cy="474.72" r="3" fill="#0891b2"/>
<circle cx="215.00" cy="474.58" r="3" fill="#0891b2"/>
<circle cx="340.00" cy="474.16" r="3" fill="#0891b2"/>
<circle cx="465.00" cy="473.04" r="3" fill="#0891b2"/>
<circle cx="590.00" cy="468.62" r="3" fill="#0891b2"/>
<circle cx="715.00" cy="450.78" r="3" fill="#0891b2"/>
<circle cx="840.00" cy="254.08" r="3" fill="#0891b2"/>
<polyline points="90.00,474.72 215.00,474.58 340.00,474.16 465.00,473.04 590.00,468.62 715.00,450.78 840.00,254.08" fill="none" stroke="#0891b2" stroke-width="2"/>
<line x1="860" y1="161" x2="883" y2="161" stroke="#0891b2" stroke-width="3"/>
<text x="890" y="165" font-size="11">direct_uds r=4</text>
<circle cx="90.00" cy="474.68" r="3" fill="#dc2626"/>
<circle cx="215.00" cy="474.66" r="3" fill="#dc2626"/>
<circle cx="340.00" cy="474.47" r="3" fill="#dc2626"/>
<circle cx="465.00" cy="474.23" r="3" fill="#dc2626"/>
<circle cx="590.00" cy="473.27" r="3" fill="#dc2626"/>
<circle cx="715.00" cy="469.66" r="3" fill="#dc2626"/>
<circle cx="840.00" cy="429.19" r="3" fill="#dc2626"/>
<polyline points="90.00,474.68 215.00,474.66 340.00,474.47 465.00,474.23 590.00,473.27 715.00,469.66 840.00,429.19" fill="none" stroke="#dc2626" stroke-width="2"/>
<line x1="860" y1="184" x2="883" y2="184" stroke="#dc2626" stroke-width="3"/>
<text x="890" y="188" font-size="11">shm_ref r=4</text>
<circle cx="90.00" cy="474.42" r="3" fill="#4f46e5"/>
<circle cx="215.00" cy="474.32" r="3" fill="#4f46e5"/>
<circle cx="340.00" cy="473.84" r="3" fill="#4f46e5"/>
<circle cx="465.00" cy="472.32" r="3" fill="#4f46e5"/>
<circle cx="590.00" cy="464.57" r="3" fill="#4f46e5"/>
<circle cx="715.00" cy="434.20" r="3" fill="#4f46e5"/>
<circle cx="840.00" cy="65.00" r="3" fill="#4f46e5"/>
<polyline points="90.00,474.42 215.00,474.32 340.00,473.84 465.00,472.32 590.00,464.57 715.00,434.20 840.00,65.00" fill="none" stroke="#4f46e5" stroke-width="2"/>
<line x1="860" y1="207" x2="883" y2="207" stroke="#4f46e5" stroke-width="3"/>
<text x="890" y="211" font-size="11">direct_uds r=8</text>
<circle cx="90.00" cy="474.11" r="3" fill="#65a30d"/>
<circle cx="215.00" cy="474.10" r="3" fill="#65a30d"/>
<circle cx="340.00" cy="473.89" r="3" fill="#65a30d"/>
<circle cx="465.00" cy="473.60" r="3" fill="#65a30d"/>
<circle cx="590.00" cy="472.10" r="3" fill="#65a30d"/>
<circle cx="715.00" cy="465.49" r="3" fill="#65a30d"/>
<circle cx="840.00" cy="391.78" r="3" fill="#65a30d"/>
<polyline points="90.00,474.11 215.00,474.10 340.00,473.89 465.00,473.60 590.00,472.10 715.00,465.49 840.00,391.78" fill="none" stroke="#65a30d" stroke-width="2"/>
<line x1="860" y1="230" x2="883" y2="230" stroke="#65a30d" stroke-width="3"/>
<text x="890" y="234" font-size="11">shm_ref r=8</text>
<text x="90.00" y="499" text-anchor="middle" font-size="10">1KB</text>
<text x="215.00" y="499" text-anchor="middle" font-size="10">4KB</text>
<text x="340.00" y="499" text-anchor="middle" font-size="10">16KB</text>
<text x="465.00" y="499" text-anchor="middle" font-size="10">64KB</text>
<text x="590.00" y="499" text-anchor="middle" font-size="10">256KB</text>
<text x="715.00" y="499" text-anchor="middle" font-size="10">1MB</text>
<text x="840.00" y="499" text-anchor="middle" font-size="10">8MB</text>
</g></svg>
